<svg width="28" height="28" viewBox="0 0 28 28" fill="none" xmlns="http://www.w3.org/2000/svg">
<path d="M9.13492 23.3333C8.9377 23.8909 8.60247 24.3894 8.1605 24.7823C7.71853 25.1753 7.18424 25.4498 6.60745 25.5805C6.03067 25.7111 5.4302 25.6935 4.86207 25.5293C4.29393 25.3651 3.77665 25.0596 3.35848 24.6415C2.9403 24.2233 2.63487 23.706 2.47067 23.1379C2.30647 22.5697 2.28885 21.9693 2.41947 21.3925C2.55009 20.8157 2.82467 20.2814 3.21762 19.8394C3.61056 19.3975 4.10905 19.0622 4.66658 18.865V9.13501C4.10905 8.93779 3.61056 8.60256 3.21762 8.16059C2.82467 7.71863 2.55009 7.18433 2.41947 6.60755C2.28885 6.03076 2.30647 5.43029 2.47067 4.86216C2.63487 4.29403 2.9403 3.77674 3.35848 3.35857C3.77665 2.94039 4.29393 2.63496 4.86207 2.47076C5.4302 2.30656 6.03067 2.28895 6.60745 2.41956C7.18424 2.55018 7.71853 2.82477 8.1605 3.21771C8.60247 3.61065 8.9377 4.10914 9.13492 4.66668H18.8649C19.0621 4.10914 19.3974 3.61065 19.8393 3.21771C20.2813 2.82477 20.8156 2.55018 21.3924 2.41956C21.9692 2.28895 22.5696 2.30656 23.1378 2.47076C23.7059 2.63496 24.2232 2.94039 24.6414 3.35857C25.0595 3.77674 25.365 4.29403 25.5292 4.86216C25.6934 5.43029 25.711 6.03076 25.5804 6.60755C25.4498 7.18433 25.1752 7.71863 24.7822 8.16059C24.3893 8.60256 23.8908 8.93779 23.3333 9.13501V18.865C23.8908 19.0622 24.3893 19.3975 24.7822 19.8394C25.1752 20.2814 25.4498 20.8157 25.5804 21.3925C25.711 21.9693 25.6934 22.5697 25.5292 23.1379C25.365 23.706 25.0595 24.2233 24.6414 24.6415C24.2232 25.0596 23.7059 25.3651 23.1378 25.5293C22.5696 25.6935 21.9692 25.7111 21.3924 25.5805C20.8156 25.4498 20.2813 25.1753 19.8393 24.7823C19.3974 24.3894 19.0621 23.8909 18.8649 23.3333H9.13492ZM9.13492 21H18.8649C19.0395 20.5077 19.3217 20.0605 19.6911 19.6912C20.0604 19.3218 20.5076 19.0396 20.9999 18.865V9.13501C20.5076 8.96047 20.0604 8.67822 19.6911 8.30886C19.3217 7.9395 19.0395 7.49234 18.8649 7.00001H9.13492C8.96037 7.49234 8.67813 7.9395 8.30877 8.30886C7.93941 8.67822 7.49225 8.96047 6.99992 9.13501V18.865C7.49225 19.0396 7.93941 19.3218 8.30877 19.6912C8.67813 20.0605 8.96037 20.5077 9.13492 21ZM5.83325 7.00001C6.14267 7.00001 6.43942 6.87709 6.65821 6.6583C6.877 6.43951 6.99992 6.14276 6.99992 5.83334C6.99992 5.52392 6.877 5.22718 6.65821 5.00838C6.43942 4.78959 6.14267 4.66668 5.83325 4.66668C5.52383 4.66668 5.22709 4.78959 5.00829 5.00838C4.7895 5.22718 4.66658 5.52392 4.66658 5.83334C4.66658 6.14276 4.7895 6.43951 5.00829 6.6583C5.22709 6.87709 5.52383 7.00001 5.83325 7.00001ZM22.1666 7.00001C22.476 7.00001 22.7728 6.87709 22.9915 6.6583C23.2103 6.43951 23.3333 6.14276 23.3333 5.83334C23.3333 5.52392 23.2103 5.22718 22.9915 5.00838C22.7728 4.78959 22.476 4.66668 22.1666 4.66668C21.8572 4.66668 21.5604 4.78959 21.3416 5.00838C21.1228 5.22718 20.9999 5.52392 20.9999 5.83334C20.9999 6.14276 21.1228 6.43951 21.3416 6.6583C21.5604 6.87709 21.8572 7.00001 22.1666 7.00001ZM22.1666 23.3333C22.476 23.3333 22.7728 23.2104 22.9915 22.9916C23.2103 22.7728 23.3333 22.4761 23.3333 22.1667C23.3333 21.8573 23.2103 21.5605 22.9915 21.3417C22.7728 21.1229 22.476 21 22.1666 21C21.8572 21 21.5604 21.1229 21.3416 21.3417C21.1228 21.5605 20.9999 21.8573 20.9999 22.1667C20.9999 22.4761 21.1228 22.7728 21.3416 22.9916C21.5604 23.2104 21.8572 23.3333 22.1666 23.3333ZM5.83325 23.3333C6.14267 23.3333 6.43942 23.2104 6.65821 22.9916C6.877 22.7728 6.99992 22.4761 6.99992 22.1667C6.99992 21.8573 6.877 21.5605 6.65821 21.3417C6.43942 21.1229 6.14267 21 5.83325 21C5.52383 21 5.22709 21.1229 5.00829 21.3417C4.7895 21.5605 4.66658 21.8573 4.66658 22.1667C4.66658 22.4761 4.7895 22.7728 5.00829 22.9916C5.22709 23.2104 5.52383 23.3333 5.83325 23.3333Z" fill="#6933FF"/>
</svg>
