<svg width="28" height="28" viewBox="0 0 28 28" fill="none" xmlns="http://www.w3.org/2000/svg">
<path d="M14.4827 5.83333H24.4997C24.8091 5.83333 25.1058 5.95625 25.3246 6.17504C25.5434 6.39383 25.6663 6.69058 25.6663 7V23.3333C25.6663 23.6428 25.5434 23.9395 25.3246 24.1583C25.1058 24.3771 24.8091 24.5 24.4997 24.5H3.49967C3.19026 24.5 2.89351 24.3771 2.67472 24.1583C2.45592 23.9395 2.33301 23.6428 2.33301 23.3333V4.66667C2.33301 4.35725 2.45592 4.0605 2.67472 3.84171C2.89351 3.62292 3.19026 3.5 3.49967 3.5H12.1493L14.4827 5.83333ZM4.66634 8.16667V22.1667H23.333V8.16667H4.66634Z" fill="#6933FF"/>
</svg>
