<svg width="28" height="28" viewBox="0 0 28 28" fill="none" xmlns="http://www.w3.org/2000/svg">
<path d="M13.9997 2.33301C20.442 2.33301 25.6663 6.97401 25.6663 12.7035C25.6654 14.4223 24.9822 16.0703 23.7667 17.2855C22.5513 18.5008 20.9031 19.1837 19.1843 19.1843H16.8907C15.815 19.1843 14.9458 20.0535 14.9458 21.1292C14.9458 21.6215 15.1407 22.0753 15.4382 22.4125C15.7497 22.7625 15.9445 23.2163 15.9445 23.7215C15.9445 24.7983 15.0497 25.6663 13.9997 25.6663C7.55734 25.6663 2.33301 20.442 2.33301 13.9997C2.33301 7.55734 7.55734 2.33301 13.9997 2.33301ZM12.6125 21.1292C12.612 20.5672 12.7224 20.0107 12.9372 19.4914C13.1521 18.9722 13.4672 18.5004 13.8645 18.103C14.2619 17.7057 14.7337 17.3906 15.2529 17.1757C15.7722 16.9609 16.3287 16.8505 16.8907 16.851H19.1843C20.284 16.8504 21.3386 16.4134 22.1164 15.636C22.8942 14.8586 23.3318 13.8044 23.333 12.7047C23.333 8.32851 19.2123 4.66634 13.9997 4.66634C11.5912 4.66414 9.27507 5.5931 7.53562 7.25897C5.79616 8.92484 4.76802 11.1987 4.66618 13.605C4.56433 16.0113 5.39666 18.3639 6.98913 20.1708C8.58161 21.9777 10.8109 23.099 13.211 23.3003C12.8204 22.6438 12.6136 21.8931 12.6125 21.1292ZM8.74967 13.9997C8.28555 13.9997 7.84043 13.8153 7.51224 13.4871C7.18405 13.1589 6.99967 12.7138 6.99967 12.2497C6.99967 11.7855 7.18405 11.3404 7.51224 11.0122C7.84043 10.684 8.28555 10.4997 8.74967 10.4997C9.2138 10.4997 9.65892 10.684 9.98711 11.0122C10.3153 11.3404 10.4997 11.7855 10.4997 12.2497C10.4997 12.7138 10.3153 13.1589 9.98711 13.4871C9.65892 13.8153 9.2138 13.9997 8.74967 13.9997ZM19.2497 13.9997C18.7855 13.9997 18.3404 13.8153 18.0122 13.4871C17.684 13.1589 17.4997 12.7138 17.4997 12.2497C17.4997 11.7855 17.684 11.3404 18.0122 11.0122C18.3404 10.684 18.7855 10.4997 19.2497 10.4997C19.7138 10.4997 20.1589 10.684 20.4871 11.0122C20.8153 11.3404 20.9997 11.7855 20.9997 12.2497C20.9997 12.7138 20.8153 13.1589 20.4871 13.4871C20.1589 13.8153 19.7138 13.9997 19.2497 13.9997ZM13.9997 10.4997C13.5355 10.4997 13.0904 10.3153 12.7622 9.98711C12.434 9.65892 12.2497 9.2138 12.2497 8.74967C12.2497 8.28555 12.434 7.84043 12.7622 7.51224C13.0904 7.18405 13.5355 6.99967 13.9997 6.99967C14.4638 6.99967 14.9089 7.18405 15.2371 7.51224C15.5653 7.84043 15.7497 8.28555 15.7497 8.74967C15.7497 9.2138 15.5653 9.65892 15.2371 9.98711C14.9089 10.3153 14.4638 10.4997 13.9997 10.4997Z" fill="#6933FF"/>
</svg>
