<svg width="29" height="29" viewBox="0 0 29 29" fill="none" xmlns="http://www.w3.org/2000/svg">
<path d="M2.67371 16.9888C2.32621 15.3476 2.32621 13.6518 2.67371 12.0105C4.01496 12.1676 5.18705 11.7241 5.56888 10.801C5.95192 9.87659 5.43838 8.73471 4.37746 7.89734C5.29222 6.49123 6.49123 5.29222 7.89734 4.37746C8.73351 5.43717 9.87659 5.95192 10.801 5.56888C11.7253 5.18584 12.1688 4.01496 12.0105 2.67371C13.6518 2.32621 15.3476 2.32621 16.9888 2.67371C16.8318 4.01496 17.2752 5.18705 18.1984 5.56888C19.1228 5.95192 20.2646 5.43838 21.102 4.37746C22.5081 5.29222 23.7071 6.49123 24.6219 7.89734C23.5622 8.73351 23.0474 9.87659 23.4305 10.801C23.8135 11.7253 24.9844 12.1688 26.3256 12.0105C26.6731 13.6518 26.6731 15.3476 26.3256 16.9888C24.9844 16.8318 23.8123 17.2752 23.4305 18.1984C23.0474 19.1228 23.561 20.2646 24.6219 21.102C23.7071 22.5081 22.5081 23.7071 21.102 24.6219C20.2658 23.5622 19.1228 23.0474 18.1984 23.4305C17.274 23.8135 16.8305 24.9844 16.9888 26.3256C15.3476 26.6731 13.6518 26.6731 12.0105 26.3256C12.1676 24.9844 11.7241 23.8123 10.801 23.4305C9.87659 23.0474 8.73471 23.561 7.89734 24.6219C6.49123 23.7071 5.29222 22.5081 4.37746 21.102C5.43717 20.2658 5.95192 19.1228 5.56888 18.1984C5.18584 17.274 4.01496 16.8305 2.67371 16.9888ZM4.83301 14.7534C6.16217 15.122 7.25813 15.9642 7.80188 17.274C8.34442 18.585 8.16438 19.9565 7.4853 21.1552C7.6013 21.2784 7.72092 21.398 7.84417 21.514C9.04405 20.835 10.4143 20.6561 11.7253 21.1975C13.0352 21.7412 13.8774 22.8372 14.2459 24.1663C14.4151 24.1712 14.5843 24.1712 14.7534 24.1663C15.122 22.8372 15.9642 21.7412 17.274 21.1975C18.585 20.6549 19.9565 20.835 21.1552 21.514C21.2784 21.398 21.398 21.2784 21.514 21.1552C20.835 19.9553 20.6561 18.585 21.1975 17.274C21.7412 15.9642 22.8372 15.122 24.1663 14.7534C24.1712 14.5843 24.1712 14.4151 24.1663 14.2459C22.8372 13.8774 21.7412 13.0352 21.1975 11.7253C20.6549 10.4143 20.835 9.04284 21.514 7.84417C21.3976 7.7214 21.2779 7.60173 21.1552 7.4853C19.9553 8.16438 18.585 8.34321 17.274 7.80188C15.9642 7.25813 15.122 6.16217 14.7534 4.83301C14.5843 4.82853 14.4151 4.82853 14.2459 4.83301C13.8774 6.16217 13.0352 7.25813 11.7253 7.80188C10.4143 8.34442 9.04284 8.16438 7.84417 7.4853C7.72092 7.6013 7.6013 7.72092 7.4853 7.84417C8.16438 9.04405 8.34321 10.4143 7.80188 11.7253C7.25813 13.0352 6.16217 13.8774 4.83301 14.2459C4.82817 14.4151 4.82817 14.5843 4.83301 14.7534ZM14.4997 18.1247C13.5383 18.1247 12.6162 17.7428 11.9364 17.0629C11.2566 16.3831 10.8747 15.4611 10.8747 14.4997C10.8747 13.5383 11.2566 12.6162 11.9364 11.9364C12.6162 11.2566 13.5383 10.8747 14.4997 10.8747C15.4611 10.8747 16.3831 11.2566 17.0629 11.9364C17.7428 12.6162 18.1247 13.5383 18.1247 14.4997C18.1247 15.4611 17.7428 16.3831 17.0629 17.0629C16.3831 17.7428 15.4611 18.1247 14.4997 18.1247ZM14.4997 15.708C14.8201 15.708 15.1275 15.5807 15.3541 15.3541C15.5807 15.1275 15.708 14.8201 15.708 14.4997C15.708 14.1792 15.5807 13.8719 15.3541 13.6453C15.1275 13.4186 14.8201 13.2913 14.4997 13.2913C14.1792 13.2913 13.8719 13.4186 13.6453 13.6453C13.4186 13.8719 13.2913 14.1792 13.2913 14.4997C13.2913 14.8201 13.4186 15.1275 13.6453 15.3541C13.8719 15.5807 14.1792 15.708 14.4997 15.708Z" fill="#6933FF"/>
</svg>
