<svg width="28" height="28" viewBox="0 0 28 28" fill="none" xmlns="http://www.w3.org/2000/svg">
<path d="M14 3.61667L8.225 9.39167C7.08296 10.5338 6.30524 11.989 5.9902 13.5732C5.67515 15.1573 5.83693 16.7993 6.45507 18.2915C7.07321 19.7837 8.11995 21.0591 9.46293 21.9565C10.8059 22.8538 12.3848 23.3328 14 23.3328C15.6152 23.3328 17.1941 22.8538 18.5371 21.9565C19.8801 21.0591 20.9268 19.7837 21.5449 18.2915C22.1631 16.7993 22.3249 15.1573 22.0098 13.5732C21.6948 11.989 20.917 10.5338 19.775 9.39167L14 3.61667ZM14 0.317337L21.4247 7.742C22.8931 9.21046 23.8931 11.0814 24.2983 13.1182C24.7034 15.155 24.4954 17.2662 23.7007 19.1848C22.906 21.1034 21.5602 22.7433 19.8335 23.897C18.1068 25.0508 16.0767 25.6666 14 25.6666C11.9233 25.6666 9.89324 25.0508 8.16653 23.897C6.43982 22.7433 5.09401 21.1034 4.29928 19.1848C3.50456 17.2662 3.29662 15.155 3.70175 13.1182C4.10688 11.0814 5.1069 9.21046 6.57534 7.742L14 0.317337ZM14 21V9.33334C15.5471 9.33334 17.0308 9.94792 18.1248 11.0419C19.2188 12.1358 19.8333 13.6196 19.8333 15.1667C19.8333 16.7138 19.2188 18.1975 18.1248 19.2915C17.0308 20.3854 15.5471 21 14 21Z" fill="#6933FF"/>
</svg>
