<svg width="28" height="28" viewBox="0 0 28 28" fill="none" xmlns="http://www.w3.org/2000/svg">
<path d="M11.6663 8.16634C11.6661 9.78876 12.1491 11.3745 13.0538 12.7213C13.9584 14.068 15.2437 15.1148 16.7457 15.7282C18.2478 16.3415 19.8984 16.4935 21.4872 16.1649C23.076 15.8363 24.5309 15.0419 25.6663 13.883V13.9997C25.6663 20.4432 20.4432 25.6663 13.9997 25.6663C7.55618 25.6663 2.33301 20.4432 2.33301 13.9997C2.33301 7.55618 7.55618 2.33301 13.9997 2.33301H14.1163C13.3394 3.09265 12.7223 4.00013 12.3016 5.00197C11.8808 6.00381 11.6648 7.07973 11.6663 8.16634ZM4.66634 13.9997C4.66549 16.0822 5.36112 18.1051 6.64255 19.7466C7.92397 21.3882 9.71758 22.554 11.738 23.0586C13.7584 23.5633 15.8895 23.3777 17.7923 22.5315C19.6951 21.6853 21.2602 20.227 22.2387 18.3887C20.4974 18.7989 18.6801 18.7574 16.9593 18.2682C15.2385 17.7789 13.6713 16.8581 12.4063 15.5931C11.1412 14.3281 10.2204 12.7608 9.73117 11.04C9.24191 9.31926 9.20043 7.502 9.61067 5.76067C8.11685 6.5565 6.86759 7.74362 5.99664 9.19493C5.12569 10.6462 4.66585 12.3071 4.66634 13.9997Z" fill="#6933FF"/>
</svg>
