<svg width="28" height="28" viewBox="0 0 28 28" fill="none" xmlns="http://www.w3.org/2000/svg">
<path d="M18.6663 15.1663L26.791 19.9053L23.3225 20.897L25.8017 25.1915L23.781 26.3582L21.3018 22.0648L18.7083 24.5732L18.6663 15.1663ZM16.333 6.99967H18.6663V9.33301H24.4997C24.8091 9.33301 25.1058 9.45592 25.3246 9.67472C25.5434 9.89351 25.6663 10.1903 25.6663 10.4997V15.1663H23.333V11.6663H11.6663V23.333H16.333V25.6663H10.4997C10.1903 25.6663 9.89351 25.5434 9.67472 25.3246C9.45593 25.1058 9.33301 24.8091 9.33301 24.4997V18.6663H6.99967V16.333H9.33301V10.4997C9.33301 10.1903 9.45593 9.89351 9.67472 9.67472C9.89351 9.45592 10.1903 9.33301 10.4997 9.33301H16.333V6.99967ZM4.66634 16.333V18.6663H2.33301V16.333H4.66634ZM4.66634 11.6663V13.9997H2.33301V11.6663H4.66634ZM4.66634 6.99967V9.33301H2.33301V6.99967H4.66634ZM4.66634 2.33301V4.66634H2.33301V2.33301H4.66634ZM9.33301 2.33301V4.66634H6.99967V2.33301H9.33301ZM13.9997 2.33301V4.66634H11.6663V2.33301H13.9997ZM18.6663 2.33301V4.66634H16.333V2.33301H18.6663Z" fill="#6933FF"/>
</svg>
