<svg width="28" height="28" viewBox="0 0 28 28" fill="none" xmlns="http://www.w3.org/2000/svg">
<path d="M14.0002 2.33301C20.4425 2.33301 25.6668 6.97401 25.6668 12.7035C25.6659 14.4223 24.9826 16.0703 23.7672 17.2855C22.5518 18.5008 20.9036 19.1837 19.1848 19.1843H16.8912C15.8155 19.1843 14.9463 20.0535 14.9463 21.1292C14.9463 21.6215 15.1412 22.0753 15.4387 22.4125C15.7502 22.7625 15.945 23.2163 15.945 23.7215C15.945 24.7983 15.0502 25.6663 14.0002 25.6663C7.55783 25.6663 2.3335 20.442 2.3335 13.9997C2.3335 7.55734 7.55783 2.33301 14.0002 2.33301ZM12.613 21.1292C12.6125 20.5672 12.7229 20.0107 12.9377 19.4914C13.1525 18.9722 13.4677 18.5004 13.865 18.103C14.2624 17.7057 14.7342 17.3906 15.2534 17.1757C15.7727 16.9609 16.3292 16.8505 16.8912 16.851H19.1848C20.2845 16.8504 21.339 16.4134 22.1169 15.636C22.8947 14.8586 23.3323 13.8044 23.3335 12.7047C23.3335 8.32851 19.2128 4.66634 14.0002 4.66634C11.5917 4.66414 9.27556 5.5931 7.5361 7.25897C5.79665 8.92484 4.76851 11.1987 4.66666 13.605C4.56482 16.0113 5.39715 18.3639 6.98962 20.1708C8.5821 21.9777 10.8114 23.099 13.2115 23.3003C12.8209 22.6438 12.6141 21.8931 12.613 21.1292ZM8.75016 13.9997C8.28603 13.9997 7.84091 13.8153 7.51273 13.4871C7.18454 13.1589 7.00016 12.7138 7.00016 12.2497C7.00016 11.7855 7.18454 11.3404 7.51273 11.0122C7.84091 10.684 8.28603 10.4997 8.75016 10.4997C9.21429 10.4997 9.65941 10.684 9.9876 11.0122C10.3158 11.3404 10.5002 11.7855 10.5002 12.2497C10.5002 12.7138 10.3158 13.1589 9.9876 13.4871C9.65941 13.8153 9.21429 13.9997 8.75016 13.9997ZM19.2502 13.9997C18.786 13.9997 18.3409 13.8153 18.0127 13.4871C17.6845 13.1589 17.5002 12.7138 17.5002 12.2497C17.5002 11.7855 17.6845 11.3404 18.0127 11.0122C18.3409 10.684 18.786 10.4997 19.2502 10.4997C19.7143 10.4997 20.1594 10.684 20.4876 11.0122C20.8158 11.3404 21.0002 11.7855 21.0002 12.2497C21.0002 12.7138 20.8158 13.1589 20.4876 13.4871C20.1594 13.8153 19.7143 13.9997 19.2502 13.9997ZM14.0002 10.4997C13.536 10.4997 13.0909 10.3153 12.7627 9.98711C12.4345 9.65892 12.2502 9.2138 12.2502 8.74967C12.2502 8.28555 12.4345 7.84043 12.7627 7.51224C13.0909 7.18405 13.536 6.99967 14.0002 6.99967C14.4643 6.99967 14.9094 7.18405 15.2376 7.51224C15.5658 7.84043 15.7502 8.28555 15.7502 8.74967C15.7502 9.2138 15.5658 9.65892 15.2376 9.98711C14.9094 10.3153 14.4643 10.4997 14.0002 10.4997Z" fill="#6933FF"/>
</svg>
