<svg width="28" height="28" viewBox="0 0 28 28" fill="none" xmlns="http://www.w3.org/2000/svg">
<path d="M6.72468 9.33333L6.38051 8.48167C6.3231 8.33957 6.29424 8.18755 6.29559 8.0343C6.29694 7.88105 6.32848 7.72956 6.38839 7.5885C6.4483 7.44744 6.53542 7.31956 6.64477 7.21218C6.75412 7.1048 6.88355 7.02001 7.02568 6.96267L17.843 2.59233C18.1297 2.47667 18.4506 2.47953 18.7352 2.60028C19.0198 2.72103 19.2448 2.94979 19.3608 3.23633L25.9175 19.4623C25.9749 19.6044 26.0038 19.7564 26.0024 19.9097C26.0011 20.063 25.9696 20.2144 25.9096 20.3555C25.8497 20.4966 25.7626 20.6244 25.6533 20.7318C25.5439 20.8392 25.4145 20.924 25.2724 20.9813L14.455 25.3517C14.3129 25.4091 14.1609 25.4379 14.0076 25.4366C13.8544 25.4352 13.7029 25.4037 13.5618 25.3438C13.4208 25.2839 13.2929 25.1968 13.1855 25.0874C13.0781 24.9781 12.9934 24.8486 12.936 24.7065L12.8333 24.4533V24.5H8.16668C7.85726 24.5 7.56052 24.3771 7.34172 24.1583C7.12293 23.9395 7.00001 23.6428 7.00001 23.3333V23.0183L3.09168 21.4398C2.80485 21.3238 2.57587 21.0986 2.4551 20.8137C2.33432 20.5288 2.33166 20.2077 2.44768 19.9208L6.72468 9.33333ZM9.33335 22.1667H11.9105L9.33335 15.7885V22.1667ZM7.00001 14.882L5.04818 19.7132L7.00001 20.5427V14.882ZM8.98101 8.68817L14.6627 22.7512L23.317 19.2547L17.6353 5.19283L8.98101 8.68817ZM12.4553 11.06C12.1684 11.1759 11.8471 11.173 11.5622 11.052C11.2774 10.931 11.0522 10.7018 10.9363 10.4148C10.8205 10.1278 10.8233 9.80658 10.9443 9.52172C11.0653 9.23685 11.2945 9.01171 11.5815 8.89583C11.8685 8.7798 12.1898 8.78253 12.4748 8.90341C12.7598 9.02429 12.9851 9.25343 13.1011 9.54042C13.2171 9.8274 13.2144 10.1487 13.0935 10.4337C12.9726 10.7187 12.7435 10.944 12.4565 11.06H12.4553Z" fill="#6933FF"/>
</svg>
