<svg width="28" height="28" viewBox="0 0 28 28" fill="none" xmlns="http://www.w3.org/2000/svg">
<g clip-path="url(#clip0_412_3519)">
<path d="M5.83333 9.33398V23.334H10.5V9.33398H5.83333ZM3.5 8.16732L8.16667 2.33398L12.8333 8.16732V25.6673H3.5V8.16732ZM22.1667 18.6673V16.334H18.6667V14.0007H22.1667V11.6673H19.8333V9.33398H22.1667V7.00065H17.5V23.334H22.1667V21.0007H19.8333V18.6673H22.1667ZM16.3333 4.66732H23.3333C23.6428 4.66732 23.9395 4.79023 24.1583 5.00903C24.3771 5.22782 24.5 5.52457 24.5 5.83398V24.5007C24.5 24.8101 24.3771 25.1068 24.1583 25.3256C23.9395 25.5444 23.6428 25.6673 23.3333 25.6673H16.3333C16.0239 25.6673 15.7272 25.5444 15.5084 25.3256C15.2896 25.1068 15.1667 24.8101 15.1667 24.5007V5.83398C15.1667 5.52457 15.2896 5.22782 15.5084 5.00903C15.7272 4.79023 16.0239 4.66732 16.3333 4.66732Z" fill="#6933FF"/>
</g>
<defs>
<clipPath id="clip0_412_3519">
<rect width="28" height="28" fill="white"/>
</clipPath>
</defs>
</svg>
