<svg width="28" height="28" viewBox="0 0 28 28" fill="none" xmlns="http://www.w3.org/2000/svg">
<g clip-path="url(#clip0_412_3528)">
<path d="M13.1203 17.4993H5.54628L3.21295 23.3327H0.699951L8.16662 4.66602H10.4999L17.9666 23.3327H15.4536L13.1203 17.4993ZM12.1869 15.166L9.33328 8.03185L6.47962 15.166H12.1869ZM24.4999 14.6235V13.9993H26.8333V23.3327H24.4999V22.7085C23.7905 23.1177 22.9859 23.333 22.1669 23.3327C21.3479 23.3324 20.5434 23.1166 19.8342 22.7069C19.125 22.2973 18.5361 21.7082 18.1267 20.9989C17.7173 20.2896 17.5018 19.485 17.5018 18.666C17.5018 17.847 17.7173 17.0424 18.1267 16.3331C18.5361 15.6238 19.125 15.0347 19.8342 14.6251C20.5434 14.2154 21.3479 13.9996 22.1669 13.9993C22.9859 13.9991 23.7905 14.2143 24.4999 14.6235ZM22.1666 20.9993C22.7855 20.9993 23.3789 20.7535 23.8165 20.3159C24.2541 19.8783 24.4999 19.2849 24.4999 18.666C24.4999 18.0472 24.2541 17.4537 23.8165 17.0161C23.3789 16.5785 22.7855 16.3327 22.1666 16.3327C21.5478 16.3327 20.9543 16.5785 20.5167 17.0161C20.0791 17.4537 19.8333 18.0472 19.8333 18.666C19.8333 19.2849 20.0791 19.8783 20.5167 20.3159C20.9543 20.7535 21.5478 20.9993 22.1666 20.9993Z" fill="#6933FF"/>
</g>
<defs>
<clipPath id="clip0_412_3528">
<rect width="28" height="28" fill="white"/>
</clipPath>
</defs>
</svg>
