<svg width="28" height="28" viewBox="0 0 28 28" fill="none" xmlns="http://www.w3.org/2000/svg">
<g clip-path="url(#clip0_412_3525)">
<path d="M22.1667 9.33398H24.5C24.8094 9.33398 25.1062 9.4569 25.325 9.67569C25.5437 9.89449 25.6667 10.1912 25.6667 10.5007V24.5007C25.6667 24.8101 25.5437 25.1068 25.325 25.3256C25.1062 25.5444 24.8094 25.6673 24.5 25.6673H15.1667C14.8572 25.6673 14.5605 25.5444 14.3417 25.3256C14.1229 25.1068 14 24.8101 14 24.5007V23.334H4.66667C4.35725 23.334 4.0605 23.2111 3.84171 22.9923C3.62292 22.7735 3.5 22.4767 3.5 22.1673V3.50065C3.5 3.19123 3.62292 2.89449 3.84171 2.67569C4.0605 2.4569 4.35725 2.33398 4.66667 2.33398H21C21.3094 2.33398 21.6062 2.4569 21.825 2.67569C22.0437 2.89449 22.1667 3.19123 22.1667 3.50065V9.33398ZM19.8333 9.33398V4.66732H5.83333V21.0007H14V10.5007C14 10.1912 14.1229 9.89449 14.3417 9.67569C14.5605 9.4569 14.8572 9.33398 15.1667 9.33398H19.8333ZM16.3333 11.6673V23.334H23.3333V11.6673H16.3333Z" fill="#6933FF"/>
</g>
<defs>
<clipPath id="clip0_412_3525">
<rect width="28" height="28" fill="white"/>
</clipPath>
</defs>
</svg>
