<svg width="28" height="28" viewBox="0 0 28 28" fill="none" xmlns="http://www.w3.org/2000/svg">
<g clip-path="url(#clip0_412_3522)">
<path d="M23.4302 17.7341L24.8325 18.5753C24.919 18.6271 24.9906 18.7004 25.0403 18.7881C25.0901 18.8758 25.1162 18.9749 25.1162 19.0758C25.1162 19.1766 25.0901 19.2757 25.0403 19.3634C24.9906 19.4511 24.919 19.5245 24.8325 19.5763L14.6008 25.7153C14.4194 25.8243 14.2117 25.8819 14 25.8819C13.7883 25.8819 13.5806 25.8243 13.3992 25.7153L3.16749 19.5763C3.08098 19.5245 3.00937 19.4511 2.95965 19.3634C2.90993 19.2757 2.88379 19.1766 2.88379 19.0758C2.88379 18.9749 2.90993 18.8758 2.95965 18.7881C3.00937 18.7004 3.08098 18.6271 3.16749 18.5753L4.56983 17.7341L14 23.3924L23.4302 17.7341ZM23.4302 12.2508L24.8325 13.0919C24.919 13.1437 24.9906 13.2171 25.0403 13.3048C25.0901 13.3925 25.1162 13.4916 25.1162 13.5924C25.1162 13.6933 25.0901 13.7924 25.0403 13.8801C24.9906 13.9678 24.919 14.0411 24.8325 14.0929L14 20.5924L3.16749 14.0929C3.08098 14.0411 3.00937 13.9678 2.95965 13.8801C2.90993 13.7924 2.88379 13.6933 2.88379 13.5924C2.88379 13.4916 2.90993 13.3925 2.95965 13.3048C3.00937 13.2171 3.08098 13.1437 3.16749 13.0919L4.56983 12.2508L14 17.9091L23.4302 12.2508ZM14.5997 1.52794L24.8325 7.66694C24.919 7.71873 24.9906 7.79206 25.0403 7.87978C25.0901 7.9675 25.1162 8.06661 25.1162 8.16744C25.1162 8.26827 25.0901 8.36738 25.0403 8.4551C24.9906 8.54282 24.919 8.61615 24.8325 8.66794L14 15.1674L3.16749 8.66794C3.08098 8.61615 3.00937 8.54282 2.95965 8.4551C2.90993 8.36738 2.88379 8.26827 2.88379 8.16744C2.88379 8.06661 2.90993 7.9675 2.95965 7.87978C3.00937 7.79206 3.08098 7.71873 3.16749 7.66694L13.3992 1.52794C13.5806 1.41892 13.7883 1.36133 14 1.36133C14.2117 1.36133 14.4194 1.41892 14.6008 1.52794H14.5997ZM14 3.88811L6.86816 8.16744L14 12.4468L21.1318 8.16744L14 3.88811Z" fill="#6933FF"/>
</g>
<defs>
<clipPath id="clip0_412_3522">
<rect width="28" height="28" fill="white"/>
</clipPath>
</defs>
</svg>
