<svg width="28" height="28" viewBox="0 0 28 28" fill="none" xmlns="http://www.w3.org/2000/svg">
<g clip-path="url(#clip0_412_3531)">
<path d="M13.9999 12.834C15.547 12.834 17.0307 13.4486 18.1247 14.5425C19.2187 15.6365 19.8333 17.1202 19.8333 18.6673V25.6673H17.4999V18.6673C17.5 17.7746 17.1589 16.9156 16.5464 16.266C15.934 15.6165 15.0965 15.2255 14.2053 15.1732L13.9999 15.1673C13.1072 15.1673 12.2482 15.5084 11.5986 16.1208C10.9491 16.7333 10.5581 17.5708 10.5058 18.462L10.4999 18.6673V25.6673H8.16659V18.6673C8.16659 17.1202 8.78117 15.6365 9.87513 14.5425C10.9691 13.4486 12.4528 12.834 13.9999 12.834ZM6.41659 16.334C6.74209 16.334 7.05825 16.3725 7.36159 16.4437C7.16211 17.0375 7.04398 17.6556 7.01042 18.2812L6.99992 18.6673V18.7677C6.86581 18.7197 6.72633 18.6883 6.58459 18.6743L6.41659 18.6673C5.98156 18.6673 5.56213 18.8294 5.2401 19.1219C4.91806 19.4144 4.71651 19.8163 4.67475 20.2493L4.66659 20.4173V25.6673H2.33325V20.4173C2.33325 19.3344 2.76346 18.2957 3.52923 17.53C4.29501 16.7642 5.33362 16.334 6.41659 16.334ZM21.5833 16.334C22.6662 16.334 23.7048 16.7642 24.4706 17.53C25.2364 18.2957 25.6666 19.3344 25.6666 20.4173V25.6673H23.3333V20.4173C23.3332 19.9823 23.1712 19.5629 22.8787 19.2408C22.5862 18.9188 22.1843 18.7172 21.7513 18.6755L21.5833 18.6673C21.3791 18.6673 21.1831 18.7023 20.9999 18.7665V18.6673C20.9999 17.8903 20.8739 17.1437 20.6394 16.446C20.9416 16.3725 21.2578 16.334 21.5833 16.334ZM6.41659 9.33398C7.19013 9.33398 7.932 9.64128 8.47898 10.1883C9.02596 10.7352 9.33325 11.4771 9.33325 12.2507C9.33325 13.0242 9.02596 13.7661 8.47898 14.313C7.932 14.86 7.19013 15.1673 6.41659 15.1673C5.64304 15.1673 4.90117 14.86 4.35419 14.313C3.80721 13.7661 3.49992 13.0242 3.49992 12.2507C3.49992 11.4771 3.80721 10.7352 4.35419 10.1883C4.90117 9.64128 5.64304 9.33398 6.41659 9.33398ZM21.5833 9.33398C22.3568 9.33398 23.0987 9.64128 23.6456 10.1883C24.1926 10.7352 24.4999 11.4771 24.4999 12.2507C24.4999 13.0242 24.1926 13.7661 23.6456 14.313C23.0987 14.86 22.3568 15.1673 21.5833 15.1673C20.8097 15.1673 20.0678 14.86 19.5209 14.313C18.9739 13.7661 18.6666 13.0242 18.6666 12.2507C18.6666 11.4771 18.9739 10.7352 19.5209 10.1883C20.0678 9.64128 20.8097 9.33398 21.5833 9.33398ZM6.41659 11.6673C6.26188 11.6673 6.1135 11.7288 6.00411 11.8382C5.89471 11.9476 5.83325 12.0959 5.83325 12.2507C5.83325 12.4054 5.89471 12.5537 6.00411 12.6631C6.1135 12.7725 6.26188 12.834 6.41659 12.834C6.5713 12.834 6.71967 12.7725 6.82906 12.6631C6.93846 12.5537 6.99992 12.4054 6.99992 12.2507C6.99992 12.0959 6.93846 11.9476 6.82906 11.8382C6.71967 11.7288 6.5713 11.6673 6.41659 11.6673ZM21.5833 11.6673C21.4285 11.6673 21.2802 11.7288 21.1708 11.8382C21.0614 11.9476 20.9999 12.0959 20.9999 12.2507C20.9999 12.4054 21.0614 12.5537 21.1708 12.6631C21.2802 12.7725 21.4285 12.834 21.5833 12.834C21.738 12.834 21.8863 12.7725 21.9957 12.6631C22.1051 12.5537 22.1666 12.4054 22.1666 12.2507C22.1666 12.0959 22.1051 11.9476 21.9957 11.8382C21.8863 11.7288 21.738 11.6673 21.5833 11.6673ZM13.9999 2.33398C15.2376 2.33398 16.4246 2.82565 17.2998 3.70082C18.1749 4.57599 18.6666 5.76297 18.6666 7.00065C18.6666 8.23833 18.1749 9.42531 17.2998 10.3005C16.4246 11.1757 15.2376 11.6673 13.9999 11.6673C12.7622 11.6673 11.5753 11.1757 10.7001 10.3005C9.82492 9.42531 9.33325 8.23833 9.33325 7.00065C9.33325 5.76297 9.82492 4.57599 10.7001 3.70082C11.5753 2.82565 12.7622 2.33398 13.9999 2.33398ZM13.9999 4.66732C13.3811 4.66732 12.7876 4.91315 12.35 5.35074C11.9124 5.78832 11.6666 6.38181 11.6666 7.00065C11.6666 7.61949 11.9124 8.21298 12.35 8.65057C12.7876 9.08815 13.3811 9.33398 13.9999 9.33398C14.6188 9.33398 15.2123 9.08815 15.6498 8.65057C16.0874 8.21298 16.3333 7.61949 16.3333 7.00065C16.3333 6.38181 16.0874 5.78832 15.6498 5.35074C15.2123 4.91315 14.6188 4.66732 13.9999 4.66732Z" fill="#6933FF"/>
</g>
<defs>
<clipPath id="clip0_412_3531">
<rect width="28" height="28" fill="white"/>
</clipPath>
</defs>
</svg>
