<svg width="28" height="28" viewBox="0 0 28 28" fill="none" xmlns="http://www.w3.org/2000/svg">
<g clip-path="url(#clip0_412_3516)">
<path d="M14.4829 5.83333H24.4999C24.8093 5.83333 25.1061 5.95625 25.3249 6.17504C25.5437 6.39383 25.6666 6.69058 25.6666 7V23.3333C25.6666 23.6428 25.5437 23.9395 25.3249 24.1583C25.1061 24.3771 24.8093 24.5 24.4999 24.5H3.49992C3.1905 24.5 2.89375 24.3771 2.67496 24.1583C2.45617 23.9395 2.33325 23.6428 2.33325 23.3333V4.66667C2.33325 4.35725 2.45617 4.0605 2.67496 3.84171C2.89375 3.62292 3.1905 3.5 3.49992 3.5H12.1496L14.4829 5.83333ZM4.66659 8.16667V22.1667H23.3333V8.16667H4.66659Z" fill="#6933FF"/>
</g>
<defs>
<clipPath id="clip0_412_3516">
<rect width="28" height="28" fill="white"/>
</clipPath>
</defs>
</svg>
