<svg width="164" height="48" viewBox="0 0 164 48" fill="none" xmlns="http://www.w3.org/2000/svg">
<g clip-path="url(#clip0_504_5587)">
<path d="M64.2848 15.026H68.9858V33.9598H64.2848V31.8392C63.1429 33.6063 61.333 34.4899 58.8549 34.4899C56.8627 34.4899 55.2107 33.7957 53.8987 32.4072C52.6111 31.0187 51.9673 29.1001 51.9673 26.6513V15.026H56.6683V26.0454C56.6683 27.3077 56.9963 28.2796 57.6523 28.9612C58.3082 29.6176 59.1829 29.9458 60.2761 29.9458C61.4909 29.9458 62.4627 29.5545 63.1915 28.7719C63.9204 27.9893 64.2848 26.8154 64.2848 25.2502V15.026Z" fill="white"/>
<path d="M83.4224 14.4958C85.4146 14.4958 87.0545 15.1901 88.3421 16.5785C89.654 17.967 90.31 19.8856 90.31 22.3344V33.9598H85.6089V22.9403C85.6089 21.678 85.281 20.7187 84.625 20.0624C83.969 19.3807 83.0944 19.0399 82.0012 19.0399C80.7864 19.0399 79.8146 19.4312 79.0858 20.2138C78.3569 20.9964 77.9925 22.1703 77.9925 23.7355V33.9598H73.2914V15.026H77.9925V17.1465C79.1344 15.3794 80.9443 14.4958 83.4224 14.4958Z" fill="white"/>
<path d="M96.6564 12.7539C95.8789 12.7539 95.1987 12.4636 94.6156 11.8829C94.0568 11.2771 93.7774 10.5702 93.7774 9.76236C93.7774 8.95452 94.0568 8.24766 94.6156 7.64177C95.1987 7.03589 95.8789 6.73295 96.6564 6.73295C97.4581 6.73295 98.1384 7.03589 98.6971 7.64177C99.2802 8.24766 99.5718 8.95452 99.5718 9.76236C99.5718 10.5702 99.2802 11.2771 98.6971 11.8829C98.1384 12.4636 97.4581 12.7539 96.6564 12.7539ZM94.3241 33.9598V15.026H99.0251V33.9598H94.3241Z" fill="white"/>
<path d="M113.75 19.7215H109.632V27.598C109.632 28.2544 109.79 28.734 110.106 29.037C110.422 29.3399 110.884 29.5166 111.491 29.5671C112.098 29.5924 112.851 29.5797 113.75 29.5293V33.9598C110.519 34.3384 108.235 34.0229 106.899 33.0131C105.587 32.0033 104.931 30.1983 104.931 27.598V19.7215H101.761V15.026H104.931V11.2013L109.632 9.72449V15.026H113.75V19.7215Z" fill="white"/>
<path d="M129.337 15.026H134.366L127.733 33.9598C126.786 36.6862 125.522 38.6554 123.943 39.8671C122.388 41.1041 120.445 41.6595 118.112 41.5333V36.9892C119.376 37.0144 120.372 36.7367 121.101 36.1561C121.854 35.5755 122.449 34.6414 122.886 33.3539L115.416 15.026H120.554L125.291 27.7495L129.337 15.026Z" fill="white"/>
<path d="M136.603 33.9598V6.31641H141.304V33.9598H136.603Z" fill="white"/>
<path d="M149.579 26.4998C150.211 28.8729 151.923 30.0594 154.717 30.0594C156.515 30.0594 157.876 29.4283 158.799 28.166L162.589 30.4381C160.791 33.1393 158.143 34.4899 154.644 34.4899C151.632 34.4899 149.214 33.5432 147.392 31.6498C145.57 29.7565 144.659 27.3708 144.659 24.4929C144.659 21.6402 145.558 19.2671 147.356 17.3738C149.154 15.4551 151.462 14.4958 154.28 14.4958C156.952 14.4958 159.151 15.4551 160.876 17.3738C162.625 19.2924 163.5 21.6654 163.5 24.4929C163.5 25.124 163.439 25.793 163.318 26.4998H149.579ZM149.506 22.7131H158.799C158.532 21.4256 157.973 20.4663 157.122 19.8351C156.296 19.204 155.349 18.8885 154.28 18.8885C153.017 18.8885 151.972 19.2293 151.146 19.9109C150.32 20.5673 149.773 21.5013 149.506 22.7131Z" fill="white"/>
<path fill-rule="evenodd" clip-rule="evenodd" d="M1.89223 2.8418C0.847179 2.8418 0 3.7162 0 4.79483V43.2045C0 44.2832 0.84718 45.1576 1.89223 45.1576H31.5371C32.5822 45.1576 33.4294 44.2832 33.4294 43.2045V4.79483C33.4294 3.7162 32.5822 2.8418 31.5371 2.8418H1.89223ZM7.56891 10.6539H13.2456V37.3454V37.3454C10.1105 37.3454 7.56891 34.8039 7.56891 31.6687V10.6539ZM20.1838 10.6539H25.8605V29.5333H20.1838V10.6539Z" fill="white"/>
<path d="M37.1533 3.75391V4.22654H36.4976V6.2603H36.0189V4.22654H35.3667V3.75391H37.1533Z" fill="white"/>
<path d="M39.7969 3.75391V6.2603H39.3216V4.63473L38.6382 5.79841H38.5827L37.8993 4.63831V6.2603H37.4205V3.75391H37.9131L38.6104 4.93907L39.3042 3.75391H39.7969Z" fill="white"/>
</g>
<defs>
<clipPath id="clip0_504_5587">
<rect width="163.5" height="48" fill="white"/>
</clipPath>
</defs>
</svg>
